<?xml version="1.0" encoding="UTF-8" standalone="no"?><!DOCTYPE svg PUBLIC "-//W3C//DTD SVG 1.1//EN" "http://www.w3.org/Graphics/SVG/1.1/DTD/svg11.dtd"><svg width="100%" height="100%" viewBox="0 0 155 46" version="1.1" xmlns="http://www.w3.org/2000/svg" xmlns:xlink="http://www.w3.org/1999/xlink" xml:space="preserve" xmlns:serif="http://www.serif.com/" style="fill-rule:evenodd;clip-rule:evenodd;stroke-linejoin:round;stroke-miterlimit:2;"><g id="itsi-logo"><path d="M22.764,4.212c-10.512,0 -19.064,8.552 -19.064,19.064c0,10.512 8.552,19.064 19.064,19.064c10.512,0 19.064,-8.552 19.064,-19.064c0,-10.512 -8.552,-19.064 -19.064,-19.064Zm0,41.689c-12.475,0 -22.625,-10.149 -22.625,-22.625c0,-12.475 10.15,-22.625 22.625,-22.625c12.476,0 22.625,10.15 22.625,22.625c0,12.476 -10.149,22.625 -22.625,22.625Z" style="fill:#005ca3;fill-rule:nonzero;"/><path d="M35.638,20.766c-0.077,3.389 -1.145,6.077 -2.504,8.142c-0.172,-0.012 -0.35,-0.017 -0.528,-0.017c-4.552,0 -7.271,5.638 -15.478,5.638c-8.213,0 -11.478,-6.16 -11.478,-6.16c-0.195,-0.642 -0.35,-1.294 -0.462,-1.965c2.024,-1.003 5.18,-2.22 8.575,-2.22c3.152,0 5.128,1.111 7.466,2.143c-2.611,1.923 -5.525,2.92 -5.769,3.002c0.297,-0.058 3.929,-0.747 6.926,-2.516c1.822,-1.068 3.413,-2.539 3.888,-4.504c1.287,-5.288 -1.431,-6.38 -1.431,-6.38c0,0 7.157,-0.356 10.795,4.837Z" style="fill:#4fc6e0;fill-rule:nonzero;"/><path d="M40.618,23.276c0,9.858 -7.994,17.852 -17.852,17.852c-8.095,0 -14.931,-5.383 -17.116,-12.759c0,0 3.265,6.16 11.478,6.16c8.207,0 10.926,-5.638 15.478,-5.638c0.178,0 0.356,0.005 0.528,0.017c-2.493,3.781 -5.97,5.484 -6.249,5.615c0.308,-0.095 4.255,-1.342 7.162,-5.501c0.802,-1.14 1.526,-2.505 2.072,-4.12c0.255,-0.753 0.445,-1.495 0.582,-2.213l0,-0.006c1.566,-8.303 -4.208,-14.237 -4.576,-14.605c5.098,3.139 8.493,8.771 8.493,15.198Z" style="fill:#00a4cf;fill-rule:nonzero;"/><text x="53.584px" y="21.608px" style="font-family:'Poppins-Bold', 'Poppins';font-weight:700;font-size:24px;fill:#323741;">ITSI</text><g><path d="M59.987,34.985l-3.504,0l0,2.625l4.095,0l0,1.184l-5.578,0l0,-8.531l5.537,0l0,1.195l-4.054,0l0,2.356l3.504,0l0,1.171Z" style="fill:#00a4cf;fill-rule:nonzero;"/><g><path d="M67.444,36.597c0,-0.375 -0.132,-0.664 -0.395,-0.867c-0.264,-0.204 -0.74,-0.409 -1.427,-0.616c-0.688,-0.207 -1.234,-0.437 -1.641,-0.691c-0.777,-0.488 -1.166,-1.125 -1.166,-1.91c0,-0.688 0.281,-1.254 0.841,-1.699c0.561,-0.446 1.288,-0.668 2.183,-0.668c0.593,0 1.123,0.109 1.588,0.328c0.464,0.218 0.83,0.53 1.095,0.934c0.266,0.405 0.399,0.853 0.399,1.345l-1.477,0c0,-0.445 -0.139,-0.794 -0.419,-1.046c-0.279,-0.252 -0.678,-0.378 -1.198,-0.378c-0.484,0 -0.86,0.104 -1.128,0.311c-0.268,0.207 -0.401,0.496 -0.401,0.867c0,0.312 0.144,0.573 0.433,0.782c0.289,0.209 0.766,0.412 1.43,0.609c0.664,0.198 1.197,0.422 1.6,0.674c0.402,0.252 0.697,0.541 0.884,0.868c0.188,0.326 0.282,0.708 0.282,1.145c0,0.711 -0.273,1.276 -0.818,1.696c-0.545,0.42 -1.284,0.63 -2.218,0.63c-0.617,0 -1.184,-0.114 -1.702,-0.343c-0.517,-0.228 -0.92,-0.544 -1.207,-0.946c-0.287,-0.402 -0.43,-0.871 -0.43,-1.406l1.482,0c0,0.484 0.16,0.859 0.48,1.125c0.321,0.265 0.78,0.398 1.377,0.398c0.516,0 0.904,-0.104 1.164,-0.313c0.259,-0.209 0.389,-0.486 0.389,-0.829Z" style="fill:#00a4cf;fill-rule:nonzero;"/><path d="M71.71,35.624l0,3.17l-1.483,0l0,-8.531l3.264,0c0.953,0 1.71,0.248 2.271,0.744c0.56,0.496 0.84,1.152 0.84,1.969c0,0.836 -0.274,1.486 -0.823,1.951c-0.549,0.465 -1.317,0.697 -2.306,0.697l-1.763,0Zm0,-1.189l1.781,0c0.527,0 0.93,-0.124 1.207,-0.372c0.277,-0.248 0.416,-0.607 0.416,-1.076c0,-0.461 -0.141,-0.829 -0.422,-1.104c-0.281,-0.276 -0.668,-0.417 -1.16,-0.425l-1.822,0l0,2.977Z" style="fill:#00a4cf;fill-rule:nonzero;"/><path d="M82.884,34.985l-3.504,0l0,2.625l4.095,0l0,1.184l-5.578,0l0,-8.531l5.537,0l0,1.195l-4.054,0l0,2.356l3.504,0l0,1.171Z" style="fill:#00a4cf;fill-rule:nonzero;"/><path d="M91.192,36.017c-0.086,0.91 -0.422,1.62 -1.008,2.13c-0.586,0.509 -1.365,0.764 -2.337,0.764c-0.68,0 -1.279,-0.161 -1.796,-0.483c-0.518,-0.322 -0.917,-0.78 -1.199,-1.374c-0.281,-0.594 -0.427,-1.283 -0.439,-2.069l0,-0.796c0,-0.805 0.142,-1.514 0.428,-2.127c0.285,-0.614 0.694,-1.086 1.227,-1.418c0.533,-0.332 1.15,-0.498 1.849,-0.498c0.941,0 1.699,0.255 2.273,0.767c0.574,0.512 0.908,1.235 1.002,2.168l-1.476,0c-0.071,-0.613 -0.249,-1.056 -0.536,-1.327c-0.288,-0.272 -0.708,-0.407 -1.263,-0.407c-0.645,0 -1.14,0.235 -1.486,0.706c-0.345,0.47 -0.522,1.161 -0.53,2.071l0,0.756c0,0.922 0.165,1.625 0.495,2.109c0.33,0.485 0.814,0.727 1.451,0.727c0.582,0 1.019,-0.131 1.312,-0.393c0.293,-0.261 0.479,-0.697 0.557,-1.306l1.476,0Z" style="fill:#00a4cf;fill-rule:nonzero;"/><rect x="92.604" y="30.263" width="1.477" height="8.531" style="fill:#00a4cf;fill-rule:nonzero;"/><path d="M100.784,36.808l-3.305,0l-0.691,1.986l-1.541,0l3.223,-8.531l1.33,0l3.228,8.531l-1.547,0l-0.697,-1.986Zm-2.889,-1.196l2.473,0l-1.236,-3.539l-1.237,3.539Z" style="fill:#00a4cf;fill-rule:nonzero;"/><path d="M105.477,37.61l3.873,0l0,1.184l-5.355,0l0,-8.531l1.482,0l0,7.347Z" style="fill:#00a4cf;fill-rule:nonzero;"/><rect x="110.575" y="30.263" width="1.477" height="8.531" style="fill:#00a4cf;fill-rule:nonzero;"/><path d="M118.333,36.597c0,-0.375 -0.132,-0.664 -0.396,-0.867c-0.263,-0.204 -0.739,-0.409 -1.426,-0.616c-0.688,-0.207 -1.235,-0.437 -1.641,-0.691c-0.777,-0.488 -1.166,-1.125 -1.166,-1.91c0,-0.688 0.28,-1.254 0.841,-1.699c0.56,-0.446 1.288,-0.668 2.182,-0.668c0.594,0 1.123,0.109 1.588,0.328c0.465,0.218 0.83,0.53 1.096,0.934c0.266,0.405 0.398,0.853 0.398,1.345l-1.476,0c0,-0.445 -0.14,-0.794 -0.419,-1.046c-0.279,-0.252 -0.679,-0.378 -1.198,-0.378c-0.485,0 -0.861,0.104 -1.128,0.311c-0.268,0.207 -0.402,0.496 -0.402,0.867c0,0.312 0.145,0.573 0.434,0.782c0.289,0.209 0.766,0.412 1.43,0.609c0.664,0.198 1.197,0.422 1.599,0.674c0.403,0.252 0.698,0.541 0.885,0.868c0.188,0.326 0.281,0.708 0.281,1.145c0,0.711 -0.272,1.276 -0.817,1.696c-0.545,0.42 -1.284,0.63 -2.218,0.63c-0.617,0 -1.184,-0.114 -1.702,-0.343c-0.518,-0.228 -0.92,-0.544 -1.207,-0.946c-0.287,-0.402 -0.431,-0.871 -0.431,-1.406l1.483,0c0,0.484 0.16,0.859 0.48,1.125c0.32,0.265 0.779,0.398 1.377,0.398c0.516,0 0.903,-0.104 1.163,-0.313c0.26,-0.209 0.39,-0.486 0.39,-0.829Z" style="fill:#00a4cf;fill-rule:nonzero;"/><path d="M127.28,31.458l-2.66,0l0,7.336l-1.471,0l0,-7.336l-2.636,0l0,-1.195l6.767,0l0,1.195Z" style="fill:#00a4cf;fill-rule:nonzero;"/><path d="M132.472,36.808l-3.305,0l-0.692,1.986l-1.541,0l3.223,-8.531l1.33,0l3.229,8.531l-1.547,0l-0.697,-1.986Zm-2.889,-1.196l2.472,0l-1.236,-3.539l-1.236,3.539Z" style="fill:#00a4cf;fill-rule:nonzero;"/><path d="M140.141,36.597c0,-0.375 -0.131,-0.664 -0.395,-0.867c-0.264,-0.204 -0.739,-0.409 -1.427,-0.616c-0.687,-0.207 -1.234,-0.437 -1.64,-0.691c-0.778,-0.488 -1.166,-1.125 -1.166,-1.91c0,-0.688 0.28,-1.254 0.84,-1.699c0.561,-0.446 1.288,-0.668 2.183,-0.668c0.594,0 1.123,0.109 1.588,0.328c0.465,0.218 0.83,0.53 1.096,0.934c0.265,0.405 0.398,0.853 0.398,1.345l-1.477,0c0,-0.445 -0.139,-0.794 -0.419,-1.046c-0.279,-0.252 -0.678,-0.378 -1.198,-0.378c-0.484,0 -0.86,0.104 -1.128,0.311c-0.267,0.207 -0.401,0.496 -0.401,0.867c0,0.312 0.144,0.573 0.434,0.782c0.289,0.209 0.765,0.412 1.429,0.609c0.664,0.198 1.198,0.422 1.6,0.674c0.402,0.252 0.697,0.541 0.885,0.868c0.187,0.326 0.281,0.708 0.281,1.145c0,0.711 -0.273,1.276 -0.818,1.696c-0.544,0.42 -1.284,0.63 -2.217,0.63c-0.617,0 -1.185,-0.114 -1.702,-0.343c-0.518,-0.228 -0.92,-0.544 -1.207,-0.946c-0.288,-0.402 -0.431,-0.871 -0.431,-1.406l1.482,0c0,0.484 0.16,0.859 0.481,1.125c0.32,0.265 0.779,0.398 1.377,0.398c0.515,0 0.903,-0.104 1.163,-0.313c0.26,-0.209 0.389,-0.486 0.389,-0.829Z" style="fill:#00a4cf;fill-rule:nonzero;"/></g></g></g></svg>